<svg width="421" height="168" viewBox="0 0 421 168" fill="none" xmlns="http://www.w3.org/2000/svg">
<path d="M149.144 125.944C134.808 120.056 112.792 115.832 89.624 115.832C82.712 115.832 75.8 116.216 68.888 116.984C27.16 121.976 4.76 139 10.648 143.224C7.96 143.224 1.56 138.744 0.92 133.112C0.28 126.328 15.128 119.672 31.896 115.32C42.904 107.64 56.472 92.024 67.352 79.352C62.232 79.992 57.24 80.376 52.248 80.376C30.232 80.376 12.312 71.416 10.904 59.768C10.648 58.104 12.184 54.904 13.976 52.728C17.688 48.376 23.704 48.12 24.6 48.632C22.296 49.4 19.608 51.576 19.48 53.88C19.096 62.584 34.328 74.616 58.008 74.616C60.312 74.616 62.744 74.488 65.304 74.232C67.608 73.976 69.784 73.72 72.088 73.336C97.176 41.848 124.184 0.759995 147.096 0.247993C154.392 0.119995 160.152 4.6 159.128 12.792C156.824 34.808 122.392 64.888 82.584 76.024C70.424 90.488 56.088 105.464 45.72 112.376C52.12 111.224 58.52 110.456 64.024 110.2C66.968 110.072 69.912 109.944 73.112 109.944C100.888 109.944 136.728 115.96 149.144 125.944ZM146.584 3.83199C136.088 7.032 112.792 39.672 88.216 69.24C129.432 55.416 153.368 19.32 152.216 8.43999C151.832 5.11199 149.912 2.808 146.584 3.83199ZM151.247 96.376C152.783 91.64 156.239 85.752 158.671 82.552C154.831 86.392 129.871 107.896 124.495 107.896C124.239 107.896 123.599 107.64 123.343 107.512C121.039 106.36 117.711 101.496 117.711 98.936C117.711 84.984 147.023 56.44 170.575 56.44C175.439 56.44 181.839 58.488 181.839 64.504C181.839 66.68 180.687 68.856 179.407 70.52C179.151 70.648 178.895 70.52 179.023 70.392C179.663 69.24 180.431 67.704 180.431 65.784C180.431 61.944 177.999 60.024 174.159 60.28C166.735 60.664 157.391 66.04 149.071 73.08C136.911 83.448 127.311 99.576 128.463 100.216C128.719 100.344 128.975 100.344 129.359 100.216C133.583 98.808 151.503 85.88 158.159 80.248C160.463 78.2 168.783 70.136 171.983 68.344C174.543 67.064 178.895 74.104 178.383 75.64C177.743 74.36 166.223 88.312 162.383 96.504C161.615 98.296 161.103 99.832 161.103 100.856C169.167 98.552 187.471 81.016 195.407 73.592C196.047 72.952 196.687 73.976 196.303 74.36C185.167 86.52 164.303 107.896 156.623 107.896C155.983 107.896 155.343 107.64 154.447 107.128C152.655 106.104 150.223 103.416 150.223 101.112C150.223 99.832 150.735 98.296 151.247 96.376ZM219.701 75.768C224.565 68.6 227.125 64.76 229.557 62.712C230.197 62.2 230.965 62.072 231.349 62.072C234.421 62.072 239.925 66.936 240.181 70.264C240.181 70.648 239.797 70.136 238.517 70.008C236.597 69.88 233.781 73.08 228.917 80.76C224.309 88.056 220.597 97.912 221.109 99.704C237.237 89.848 257.461 66.296 269.493 47.224C270.261 46.2 270.517 46.2 269.877 47.48C260.277 72.312 223.413 107.896 218.293 107.896C215.093 107.896 211.893 102.904 211.765 101.88C211.125 96.888 214.581 87.8 217.909 80.888C212.021 87.672 203.189 97.656 198.069 101.88C194.101 105.208 190.389 108.408 188.981 108.408C186.549 108.408 183.349 103.416 183.093 102.392C182.837 95.736 189.493 81.272 196.661 70.52C200.501 64.632 203.061 61.56 206.005 59.128C206.645 58.488 207.413 58.36 207.797 58.36C211.125 58.36 216.373 63.352 216.501 66.68C216.629 67.064 216.245 66.552 215.093 66.424C213.941 66.424 212.405 67.576 210.613 69.624C205.493 75.512 194.357 92.792 193.333 100.088C197.173 98.04 207.925 89.336 219.701 75.768ZM312.501 67.448C307.125 73.08 301.877 79.992 296.245 86.904C286.261 99.32 265.909 135.8 258.357 150.008C268.469 136.056 287.029 119.032 290.741 117.88C291.381 117.88 291.381 118.648 291.381 118.648C273.077 133.24 256.181 160.12 254.773 166.264C254.517 166.52 254.005 166.648 253.365 166.648C248.245 167.16 246.325 160.12 246.709 157.816C247.093 153.976 249.781 148.344 252.085 142.968C258.741 128.376 276.149 94.456 294.197 73.72C281.269 86.904 263.221 106.104 255.541 107.64C255.157 107.64 254.773 107.64 254.517 107.64C252.469 107.64 248.501 104.184 248.501 101.112C248.501 95.608 255.541 82.68 262.837 72.568C267.189 66.296 272.437 60.536 275.637 57.976C276.277 57.336 277.045 57.208 277.429 57.208C280.501 57.208 285.365 62.2 285.365 65.528C285.365 66.04 284.981 65.4 283.957 65.272C281.909 65.016 276.661 71.16 272.309 76.92C265.781 85.368 259.509 96.632 259.509 100.344C265.653 97.784 278.709 86.264 284.725 80.376C291.509 73.848 301.493 62.84 308.533 57.208C309.301 56.568 309.813 56.44 310.453 56.44C313.397 56.44 318.389 61.56 318.389 64.76C318.389 65.272 317.877 64.632 316.981 64.504C315.957 64.376 314.293 65.528 312.501 67.448ZM319.421 89.72C317.117 92.408 314.685 96.504 314.301 99.832C314.173 101.368 315.325 102.264 318.141 102.264C327.485 102.264 350.909 84.472 363.837 73.72C364.221 73.464 365.117 74.104 364.733 74.488C355.133 83.448 329.661 107.896 312.637 107.896C308.669 107.896 303.549 103.288 303.549 99.832C303.549 96.76 304.317 94.2 305.341 91.384C308.413 84.088 314.941 76.024 323.005 69.24C333.629 60.408 345.021 56.44 350.525 56.44C352.445 56.44 358.333 59.384 358.333 62.968C358.333 70.904 333.757 89.336 319.421 89.72ZM354.237 60.28C340.029 64.888 325.309 80.376 321.085 87.16C332.221 85.88 353.469 65.144 354.237 60.28ZM365.719 72.952C370.199 66.424 375.703 59.896 378.903 57.336C379.671 56.824 380.183 56.696 380.695 56.696C383.767 56.696 388.631 61.688 388.631 64.888C388.631 65.4 388.247 64.76 387.223 64.632C385.303 64.504 380.823 69.496 376.983 74.616C373.527 79.224 369.047 85.24 366.359 89.976C373.143 81.144 385.943 70.392 396.951 62.456C401.943 58.872 405.783 56.696 408.471 56.44C409.879 56.312 415.127 61.816 414.231 62.84C411.415 65.784 400.791 75.128 396.567 85.112C402.711 84.6 411.543 78.84 419.479 71.8C419.607 71.672 420.375 71.544 420.503 71.8C418.199 74.872 402.839 89.208 394.007 89.208C391.703 89.208 387.863 84.728 387.863 83.192C387.863 79.608 391.959 72.184 395.287 68.344C383.511 75.256 377.495 80.376 368.791 89.976C362.263 97.016 354.583 108.28 357.399 109.56C353.687 110.456 350.615 106.488 349.719 102.904C349.463 101.752 350.103 99.32 351.639 96.376C354.839 89.08 360.599 80.248 365.719 72.952Z" fill="#9E9DA8"/>
</svg>
